<svg width="500" height="500" viewBox="0 0 500 500" fill="none" xmlns="http://www.w3.org/2000/svg">
<path d="M250.001 4.53047C212.05 4.41265 174.597 13.1607 140.626 30.0773C139.707 30.539 138.889 31.177 138.217 31.955C137.546 32.7329 137.034 33.6355 136.711 34.6112C136.388 35.587 136.261 36.6167 136.336 37.6418C136.411 38.6668 136.687 39.6669 137.149 40.5852C137.611 41.5034 138.249 42.3217 139.027 42.9933C139.805 43.665 140.707 44.1769 141.683 44.4997C142.659 44.8225 143.688 44.95 144.713 44.8748C145.738 44.7997 146.739 44.5234 147.657 44.0617C179.44 28.2197 214.488 20.0328 250.001 20.1555C291.635 20.1749 332.483 31.4992 368.185 52.9198C403.887 74.3403 433.102 105.053 452.713 141.78C472.323 178.507 481.593 219.87 479.533 261.453C477.473 303.037 464.161 343.281 441.016 377.89C440.44 378.741 440.038 379.697 439.833 380.704C439.627 381.711 439.622 382.748 439.818 383.757C440.014 384.766 440.407 385.726 440.974 386.583C441.542 387.439 442.273 388.176 443.126 388.749C444.432 389.59 445.947 390.05 447.501 390.077C448.78 390.079 450.041 389.767 451.171 389.167C452.302 388.568 453.268 387.7 453.985 386.64C478.719 349.679 492.951 306.695 495.16 262.276C497.37 217.858 487.474 173.674 466.53 134.441C445.586 95.2079 414.38 62.3998 376.244 39.5195C338.108 16.6391 294.474 4.54571 250.001 4.53047V4.53047ZM423.204 401.093C416.371 408.981 408.982 416.369 401.094 423.202C399.542 424.571 398.596 426.499 398.464 428.565C398.333 430.63 399.026 432.663 400.391 434.218C401.123 435.051 402.024 435.719 403.035 436.177C404.045 436.635 405.141 436.873 406.251 436.874C408.139 436.893 409.971 436.227 411.407 434.999C419.731 427.716 427.561 419.886 434.844 411.562C435.521 410.787 436.039 409.887 436.368 408.912C436.698 407.937 436.832 406.907 436.763 405.881C436.694 404.854 436.423 403.851 435.967 402.929C435.51 402.007 434.877 401.184 434.102 400.507C433.327 399.83 432.427 399.312 431.452 398.983C430.478 398.654 429.448 398.52 428.421 398.589C427.395 398.658 426.392 398.928 425.47 399.384C424.548 399.841 423.725 400.475 423.047 401.249L423.204 401.093ZM380.86 439.062C334.942 470.845 279.026 484.83 223.552 478.405C168.078 471.98 116.838 445.585 79.4001 404.148C41.9621 362.71 20.885 309.064 20.1042 253.224C19.3233 197.385 38.8921 143.17 75.1568 100.702C76.5036 99.1276 77.1697 97.0824 77.0085 95.0166C76.8473 92.9507 75.8721 91.0335 74.2974 89.6867C72.7227 88.3399 70.6774 87.6738 68.6116 87.835C66.5458 87.9962 64.6286 88.9714 63.2818 90.5461C24.5715 135.903 3.68908 193.797 4.53239 253.421C5.37571 313.045 27.8871 370.325 67.8647 414.57C107.842 458.814 162.554 486.998 221.788 493.863C281.022 500.727 340.729 485.803 389.766 451.874C391.463 450.691 392.621 448.884 392.987 446.848C393.354 444.813 392.898 442.715 391.719 441.015C390.536 439.318 388.729 438.16 386.693 437.794C384.658 437.427 382.56 437.883 380.86 439.062V439.062ZM88.5943 83.3586C90.5138 83.313 92.3494 82.5621 93.7505 81.2492C96.9536 78.2805 100.157 75.468 103.516 72.7336C104.461 72.1501 105.271 71.3719 105.891 70.4508C106.512 69.5296 106.929 68.4868 107.115 67.3918C107.3 66.2968 107.25 65.1748 106.968 64.1006C106.686 63.0264 106.178 62.0248 105.478 61.1625C104.778 60.3002 103.902 59.597 102.909 59.0999C101.916 58.6027 100.828 58.3231 99.7182 58.2795C98.6084 58.236 97.5021 58.4296 96.4731 58.8473C95.444 59.2651 94.5159 59.8975 93.7505 60.7023C90.1568 63.593 86.7193 66.6399 83.2818 69.7649C82.1111 70.8288 81.2911 72.223 80.93 73.7631C80.5689 75.3032 80.6839 76.9167 81.2597 78.39C81.8355 79.8634 82.845 81.1272 84.1547 82.0144C85.4643 82.9016 87.0124 83.3703 88.5943 83.3586V83.3586ZM116.719 61.0148C118.277 61.0183 119.801 60.5558 121.094 59.6867L123.047 58.3586C123.904 57.7892 124.64 57.0566 125.214 56.2027C125.787 55.3488 126.187 54.3903 126.39 53.382C126.593 52.3736 126.596 51.335 126.398 50.3257C126.199 49.3163 125.804 48.3559 125.235 47.4992C124.666 46.6426 123.933 45.9064 123.079 45.3329C122.225 44.7593 121.267 44.3595 120.258 44.1564C119.25 43.9533 118.211 43.9508 117.202 44.149C116.193 44.3472 115.232 44.7423 114.376 45.3117L112.266 46.8742C110.557 48.045 109.383 49.8468 109.002 51.8833C108.621 53.9197 109.064 56.0241 110.235 57.7336C110.969 58.765 111.943 59.6025 113.072 60.1741C114.202 60.7457 115.453 61.0342 116.719 61.0148Z" fill="url(#paint0_linear_13_67)"/>
<path d="M414.063 145.547C414.107 145.158 414.107 144.764 414.063 144.375C414.1 143.829 414.1 143.281 414.063 142.734C413.762 142.099 413.396 141.496 412.969 140.938C412.84 140.686 412.683 140.45 412.5 140.234C411.897 139.611 411.181 139.107 410.391 138.75C409.774 138.476 409.112 138.317 408.438 138.281H92.7346C92.0604 138.317 91.3985 138.476 90.7814 138.75C89.991 139.107 89.2753 139.611 88.6721 140.234C88.4893 140.45 88.332 140.686 88.2033 140.938C87.7766 141.496 87.41 142.099 87.1096 142.734C87.0725 143.281 87.0725 143.829 87.1096 144.375C87.065 144.764 87.065 145.158 87.1096 145.547V354.609C87.2025 355.19 87.3329 355.764 87.5002 356.328C87.4361 356.769 87.4361 357.216 87.5002 357.656C87.6289 357.908 87.7862 358.144 87.969 358.359C88.3409 359.008 88.7865 359.611 89.2971 360.156L90.0783 360.703C90.5977 361.061 91.1466 361.375 91.7189 361.641C92.2367 361.721 92.7637 361.721 93.2814 361.641C93.6973 361.678 94.1156 361.678 94.5315 361.641H406.25C406.666 361.678 407.084 361.678 407.5 361.641C408.018 361.721 408.545 361.721 409.063 361.641C409.635 361.375 410.184 361.061 410.703 360.703L411.485 360.156C411.995 359.611 412.441 359.008 412.813 358.359C412.995 358.144 413.153 357.908 413.281 357.656C413.346 357.216 413.346 356.769 413.281 356.328C413.318 355.756 413.318 355.182 413.281 354.609V145.547H414.063ZM101.563 163.437L186.094 242.187L101.563 334.297V163.437ZM287.969 244.531C277.641 254.102 264.081 259.419 250 259.419C235.92 259.419 222.359 254.102 212.031 244.531L113.672 153.359H386.328L287.969 244.531ZM197.578 252.344L201.406 255.937C214.632 268.171 231.985 274.966 250 274.966C268.016 274.966 285.369 268.171 298.594 255.937L302.422 252.422L388.36 346.172H111.485L197.578 252.344ZM313.906 242.187L398.438 163.437V334.297L313.906 242.187Z" fill="url(#paint1_linear_13_67)"/>
<defs>
<linearGradient id="paint0_linear_13_67" x1="249.986" y1="4.5293" x2="249.986" y2="495.496" gradientUnits="userSpaceOnUse">
<stop stop-color="#1A6DFF"/>
<stop offset="1" stop-color="#C822FF"/>
</linearGradient>
<linearGradient id="paint1_linear_13_67" x1="250.586" y1="138.281" x2="250.586" y2="361.701" gradientUnits="userSpaceOnUse">
<stop stop-color="#1A6DFF"/>
<stop offset="1" stop-color="#C822FF"/>
</linearGradient>
</defs>
</svg>
