<svg width="500" height="291" viewBox="0 0 500 291" fill="none" xmlns="http://www.w3.org/2000/svg">
<g clip-path="url(#clip0_14_101)">
<path d="M500 282.559C481.812 287.182 470.562 282.761 460.471 267.607L388.688 168.296L378.312 154.545L294.484 267.937C284.907 281.58 274.861 287.512 256.984 282.686L364.328 138.592L264.391 8.43303C281.577 5.09177 293.453 6.79053 303.998 22.1843L378.451 122.733L453.451 22.7318C463.059 9.08928 473.39 3.90677 490.64 8.93178L451.891 60.3069L399.391 128.666C393.14 136.477 393.999 141.825 399.751 149.366L500 282.559ZM0.1275 136.185L8.90627 92.9957C32.8126 7.52553 130.782 -27.9908 198.345 24.8206C237.829 55.8819 247.643 99.8208 245.689 149.04H23.1263C19.785 237.634 83.5502 291.101 164.843 263.824C193.358 254.246 210.154 231.915 218.562 203.981C222.829 189.982 229.887 187.792 243.046 191.794C236.329 226.732 221.172 255.919 189.139 274.185C141.282 301.526 72.9639 292.684 37.0313 254.685C15.6225 232.635 6.78002 204.701 2.81251 174.825C2.18626 169.886 0.937502 165.183 0 160.451C0.0825002 152.366 0.1275 144.285 0.1275 136.2V136.185V136.185ZM23.5313 130.248H224.656C223.343 66.1869 183.454 20.6843 128.937 20.2981C69.0939 19.8293 26.1226 64.2482 23.5276 130.248H23.5313V130.248Z" fill="url(#paint0_linear_14_101)"/>
</g>
<defs>
<linearGradient id="paint0_linear_14_101" x1="250" y1="-0.00195313" x2="250" y2="290.081" gradientUnits="userSpaceOnUse">
<stop stop-color="#1A6DFF"/>
<stop offset="1" stop-color="#C822FF"/>
</linearGradient>
<clipPath id="clip0_14_101">
<rect width="500" height="290.082" fill="white"/>
</clipPath>
</defs>
</svg>
