<svg width="500" height="500" viewBox="0 0 500 500" fill="none" xmlns="http://www.w3.org/2000/svg">
<path d="M242.188 15.625C117.279 15.625 15.625 117.279 15.625 242.188C15.625 341.003 79.2542 425.201 167.633 456.085C168.884 456.97 170.38 457.52 171.967 457.55C194.061 464.783 217.682 468.75 242.188 468.75C367.096 468.75 468.75 367.096 468.75 242.188C468.75 117.279 367.096 15.625 242.188 15.625ZM242.188 31.25C358.49 31.25 453.125 125.885 453.125 242.188C453.125 333.282 395.081 411.041 314.056 440.521C313.202 437.988 312.5 434.235 312.5 431.671V390.625C312.5 374.268 304.504 356.445 296.631 344.482C339.996 337.158 389.557 314.667 389.557 230.713C389.557 207.703 382.355 187.408 368.164 170.319C371.277 160.065 375.122 138.428 364.38 111.267C363.525 109.1 361.725 107.422 359.497 106.689C357.3 106.018 337.25 100.8 295.624 128.113C278.687 123.749 260.773 121.49 242.188 121.429C223.694 121.49 205.75 123.749 188.873 128.113C147.247 100.769 127.136 105.988 124.969 106.689C122.742 107.422 120.941 109.1 120.087 111.267C109.314 138.458 113.159 160.065 116.333 170.319C102.081 187.408 94.8792 207.703 94.8792 230.713C94.8792 313.904 143.555 336.823 186.554 344.452C181.152 351.288 175.476 360.138 172.974 369.141C161.865 372.223 139.099 372.314 123.81 346.13C123.261 345.123 109.894 321.381 83.5266 319.55C79.3457 319.58 68.7256 320.251 66.1621 328.369C63.324 337.372 73.2727 344.208 77.5452 347.107C77.8198 347.29 78.2471 347.534 78.5217 347.687C79.01 347.931 90.3931 353.912 98.877 375.275C100.647 380.859 116.18 422.943 171.936 415.527C171.967 421.692 171.936 424.805 171.875 427.277V431.641C171.875 434.174 171.112 437.988 170.258 440.46C89.2334 410.98 31.25 333.221 31.25 242.188C31.25 125.885 125.885 31.25 242.188 31.25ZM240.295 54.718C209.839 55.0537 179.718 63.0798 153.198 78.2471C149.445 80.3528 148.132 85.144 150.269 88.8672C151.703 91.4001 154.327 92.8345 157.074 92.8345C158.386 92.8345 159.698 92.4988 160.919 91.7969C193.237 73.3643 231.384 66.4673 268.28 72.3877C272.522 73.0896 276.52 70.1904 277.222 65.918C277.893 61.6455 274.994 57.6477 270.752 56.9458C260.651 55.3284 250.458 54.5959 240.295 54.718ZM302.002 65.5212C298.981 65.6433 296.143 67.5659 295.044 70.5872C293.518 74.646 295.563 79.1321 299.622 80.658C305.176 82.7332 310.669 85.1135 316.04 87.7991C317.169 88.3789 318.359 88.6536 319.55 88.6536C322.388 88.6536 325.134 87.0972 326.538 84.3506C328.461 80.5359 326.904 75.8057 323.059 73.8525C317.23 70.9229 311.157 68.2678 305.084 66.0095C304.077 65.6433 303.04 65.4907 302.002 65.5212ZM351.44 121.46C359.833 146.149 354.095 164.032 352.02 169.098C350.891 171.906 351.471 175.11 353.516 177.338C367.035 192.139 373.901 210.083 373.901 230.713C373.901 309.906 326.965 325.806 281.006 330.902C277.924 331.238 275.33 333.374 274.414 336.334C273.468 339.294 274.414 342.529 276.764 344.574C282.928 349.854 296.875 372.772 296.875 390.625V431.671C296.875 431.824 296.906 438.629 299.133 445.251C281.006 450.348 261.932 453.125 242.188 453.125C222.412 453.125 203.308 450.317 185.15 445.221C187.408 438.568 187.469 431.763 187.469 431.641L187.5 427.46C187.531 423.92 187.592 419.128 187.5 406.219C187.469 403.839 186.401 401.642 184.57 400.146C182.739 398.682 180.328 398.132 178.009 398.621C125.549 410.065 114.197 372.192 113.77 370.605C113.678 370.331 113.586 370.087 113.495 369.812C105.988 350.769 96.0999 341.064 90.21 336.67C102.936 341.156 110.046 353.577 110.229 353.851C130.89 389.221 165.009 390.137 182.861 382.141C185.333 381.042 187.042 378.754 187.408 376.099C188.995 364.929 201.263 350.159 207.458 344.727C209.778 342.682 210.693 339.447 209.747 336.517C208.832 333.557 206.268 331.421 203.217 331.085C157.379 325.867 110.504 309.845 110.504 230.713C110.504 210.114 117.371 192.139 130.951 177.338C132.996 175.11 133.575 171.906 132.416 169.098C130.341 164.032 124.573 146.21 132.935 121.49C139.587 121.704 155.792 124.542 183.075 143.066C184.967 144.348 187.378 144.745 189.575 144.135C205.902 139.587 224.121 137.146 242.188 137.054C260.315 137.146 278.534 139.587 294.891 144.135C297.089 144.745 299.469 144.348 301.361 143.066C328.796 124.451 345.001 121.674 351.44 121.46ZM166.992 268.707C163.94 268.341 160.858 269.745 159.271 272.552L151.459 286.072C149.292 289.825 150.574 294.586 154.297 296.753C155.518 297.455 156.86 297.791 158.203 297.791C160.889 297.791 163.513 296.387 164.948 293.884L172.76 280.365C174.927 276.642 173.676 271.851 169.922 269.684C168.976 269.165 167.999 268.829 166.992 268.707ZM317.383 268.707C316.376 268.829 315.369 269.165 314.453 269.684C310.699 271.851 309.448 276.642 311.615 280.396L319.427 293.915C320.862 296.417 323.486 297.821 326.172 297.821C327.515 297.821 328.857 297.455 330.078 296.753C333.832 294.586 335.083 289.825 332.916 286.102L325.104 272.583C323.486 269.775 320.404 268.341 317.383 268.707ZM282.715 283.936C281.708 283.783 280.64 283.844 279.572 284.149C275.421 285.248 272.949 289.52 274.048 293.701L278.107 308.807C279.053 312.286 282.196 314.575 285.645 314.575C286.346 314.575 287.018 314.484 287.689 314.331C291.84 313.202 294.342 308.929 293.213 304.749L289.185 289.673C288.33 286.53 285.706 284.363 282.715 283.936ZM201.691 283.936C198.669 284.363 196.045 286.53 195.19 289.673L191.162 304.779C190.033 308.929 192.535 313.202 196.686 314.331C197.357 314.514 198.029 314.575 198.73 314.575C202.148 314.575 205.322 312.286 206.268 308.807L210.327 293.701C211.426 289.551 208.954 285.248 204.803 284.149C203.735 283.844 202.698 283.813 201.691 283.936ZM242.188 289.062C237.854 289.062 234.375 292.542 234.375 296.875V312.5C234.375 316.833 237.854 320.312 242.188 320.312C246.521 320.312 250 316.833 250 312.5V296.875C250 292.542 246.521 289.062 242.188 289.062Z" fill="url(#paint0_linear_12_61)"/>
<defs>
<linearGradient id="paint0_linear_12_61" x1="242.188" y1="15.625" x2="242.188" y2="468.75" gradientUnits="userSpaceOnUse">
<stop stop-color="#1A6DFF"/>
<stop offset="1" stop-color="#C822FF"/>
</linearGradient>
</defs>
</svg>
