<svg xmlns="http://www.w3.org/2000/svg"  viewBox="0 0 64 64" width="96px" height="96px"><linearGradient id="SVGID_1_" x1="32" x2="32" y1="308.917" y2="263.324" gradientTransform="matrix(1 0 0 -1 0 318)" gradientUnits="userSpaceOnUse"><stop offset="0" stop-color="#1a6dff"/><stop offset="1" stop-color="#c822ff"/></linearGradient><path fill="url(#SVGID_1_)" d="M50,55H14c-2.8,0-5-2.2-5-5V14c0-2.8,2.2-5,5-5h36c2.8,0,5,2.2,5,5v36C55,52.8,52.8,55,50,55z M14,11	c-1.7,0-3,1.3-3,3v36c0,1.7,1.3,3,3,3h36c1.7,0,3-1.3,3-3V14c0-1.7-1.3-3-3-3H14z"/><linearGradient id="SVGID_2_" x1="625" x2="625" y1="297" y2="274" gradientTransform="rotate(180 333 159)" gradientUnits="userSpaceOnUse"><stop offset="0" stop-color="#6dc7ff"/><stop offset="1" stop-color="#e6abff"/></linearGradient><path fill="url(#SVGID_2_)" d="M39,26h4v-4c0-0.6,0.4-1,1-1h2c0.6,0,1,0.4,1,1v12.5V40c0,2.2-1.8,4-4,4h-4c-2.2,0-4-1.8-4-4V30	C35,27.8,36.8,26,39,26z M39,39c0,0.5,0.4,1,0.9,1h2.2c0.5,0,0.9-0.4,0.9-1v-8c0-0.6-0.4-1-1-1h-2c-0.6,0-1,0.4-1,1V39z"/><linearGradient id="SVGID_3_" x1="24.257" x2="24.257" y1="20.915" y2="43.754" gradientUnits="userSpaceOnUse"><stop offset="0" stop-color="#6dc7ff"/><stop offset="1" stop-color="#e6abff"/></linearGradient><path fill="url(#SVGID_3_)" d="M26.5,32.5l5.4-10c0.4-0.7-0.1-1.5-0.9-1.5h-2.3c-0.4,0-0.7,0.2-0.9,0.5l-3.6,6.7l-3.6-6.7	c-0.2-0.3-0.5-0.5-0.9-0.5h-2.3c-0.8,0-1.2,0.8-0.9,1.5l5.4,10l-5.4,10c-0.4,0.7,0.1,1.5,0.9,1.5h2.3c0.4,0,0.7-0.2,0.9-0.5l3.6-6.7	l3.6,6.7c0.2,0.3,0.5,0.5,0.9,0.5H31c0.8,0,1.2-0.8,0.9-1.5L26.5,32.5z"/></svg>