<svg width="500" height="500" viewBox="0 0 500 500" fill="none" xmlns="http://www.w3.org/2000/svg">
<path d="M250 20C123.093 20 20 123.093 20 250C20 376.907 123.093 480 250 480C376.907 480 480 376.907 480 250C480 123.093 376.907 20 250 20ZM250 40C366.098 40 460 133.902 460 250C460 366.098 366.098 460 250 460C133.902 460 40 366.098 40 250C40 133.902 133.902 40 250 40ZM160 120C143.55 120 130 133.55 130 150C130 166.45 143.55 180 160 180C176.45 180 190 166.45 190 150C190 133.55 176.45 120 160 120ZM160 140C165.641 140 170 144.359 170 150C170 155.641 165.641 160 160 160C154.359 160 150 155.641 150 150C150 144.359 154.359 140 160 140ZM140 190C137.348 190 134.805 191.054 132.929 192.929C131.054 194.805 130 197.348 130 200V350C130 352.652 131.054 355.195 132.929 357.071C134.805 358.946 137.348 360 140 360H180C182.652 360 185.195 358.946 187.071 357.071C188.946 355.195 190 352.652 190 350V200C190 197.348 188.946 194.805 187.071 192.929C185.195 191.054 182.652 190 180 190H140ZM220 190C217.348 190 214.805 191.054 212.929 192.929C211.054 194.805 210 197.348 210 200V350C210 352.652 211.054 355.195 212.929 357.071C214.805 358.946 217.348 360 220 360H260C262.652 360 265.195 358.946 267.071 357.071C268.946 355.195 270 352.652 270 350V275C270 261.205 281.205 250 295 250C308.795 250 320 261.205 320 275V300V350C320 352.652 321.054 355.195 322.929 357.071C324.805 358.946 327.348 360 330 360H370C372.652 360 375.195 358.946 377.071 357.071C378.946 355.195 380 352.652 380 350V265C380 223.696 346.304 190 305 190C292.135 190 280.597 194.162 270 199.902C269.974 197.267 268.909 194.749 267.036 192.895C265.164 191.04 262.635 190 260 190H220ZM150 210H170V340H150V210ZM230 210H250V218.164C250 220.125 250.577 222.043 251.659 223.679C252.741 225.315 254.28 226.597 256.084 227.365C257.889 228.133 259.88 228.354 261.809 227.999C263.738 227.645 265.52 226.731 266.934 225.371C276.842 215.853 290.167 210 305 210C335.496 210 360 234.504 360 265V340H340V300V275C340 250.295 319.705 230 295 230C270.295 230 250 250.295 250 275V340H230V210Z" fill="url(#paint0_linear_12_63)"/>
<defs>
<linearGradient id="paint0_linear_12_63" x1="250" y1="20" x2="250" y2="480" gradientUnits="userSpaceOnUse">
<stop stop-color="#1A6DFF"/>
<stop offset="1" stop-color="#C822FF"/>
</linearGradient>
</defs>
</svg>
