<svg width="500" height="500" viewBox="0 0 500 500" fill="none" xmlns="http://www.w3.org/2000/svg">
<path d="M150 140C210.65 140 260 189.35 260 250C260 310.65 210.65 360 150 360C89.35 360 40 310.65 40 250C40 189.35 89.35 140 150 140ZM150 120C78.2 120 20 178.2 20 250C20 321.8 78.2 380 150 380C221.8 380 280 321.8 280 250C280 178.2 221.8 120 150 120ZM355 150C376.24 150 400 192.77 400 250C400 307.23 376.24 350 355 350C333.76 350 310 307.23 310 250C310 192.77 333.76 150 355 150ZM355 130C319.1 130 290 183.73 290 250C290 316.27 319.1 370 355 370C390.9 370 420 316.27 420 250C420 183.73 390.9 130 355 130ZM463.77 156.67H463.82H463.77ZM455 185.77C457.8 201.58 460 223.27 460 250C460 276.73 457.8 298.42 455 314.23C452.2 298.42 450 276.73 450 250C450 223.27 452.2 201.58 455 185.77ZM455 140C441.19 140 430 189.25 430 250C430 310.75 441.19 360 455 360C468.81 360 480 310.75 480 250C480 189.25 468.81 140 455 140Z" fill="url(#paint0_linear_12_65)"/>
<defs>
<linearGradient id="paint0_linear_12_65" x1="250" y1="120" x2="250" y2="380" gradientUnits="userSpaceOnUse">
<stop stop-color="#1A6DFF"/>
<stop offset="1" stop-color="#C822FF"/>
</linearGradient>
</defs>
</svg>
