<svg width="500" height="500" viewBox="0 0 500 500" fill="none" xmlns="http://www.w3.org/2000/svg">
<path fill-rule="evenodd" clip-rule="evenodd" d="M340.736 204.423C341.396 203.154 342.029 202.033 342.568 200.873C342.908 200.131 343.432 199.982 344.17 200.002C348.596 200.127 353.021 200.263 357.451 200.306C361.213 200.345 364.982 200.275 368.748 200.232C372.99 200.181 377.232 199.959 381.471 200.08C387.115 200.244 392.615 201.349 397.721 203.861C403.818 206.865 408.432 211.439 411.576 217.466C413.584 221.314 414.748 225.396 415.213 229.732C415.885 236.013 415.443 242.15 413.451 248.158C410.982 255.603 406.295 261.302 399.783 265.572C394.771 268.857 389.275 270.798 383.385 271.908C377.15 273.084 370.896 272.705 364.643 272.724C357.783 272.752 350.928 272.603 344.068 272.525C342.869 272.513 342.697 272.287 343.014 271.142L343.307 270.088C343.975 267.986 344.334 267.892 346.467 267.541C347.943 267.302 349.475 266.748 350.713 265.927C351.432 265.451 351.728 264.209 352.01 263.252C352.252 262.416 352.264 261.498 352.271 260.615C352.369 247.236 352.471 233.861 352.525 220.49C352.537 217.111 352.459 213.724 352.271 210.349C352.139 207.986 350.877 206.369 348.064 205.81C345.877 205.377 343.674 205.041 341.475 204.654L340.736 204.423V204.423ZM403.533 236.818C403.236 234.154 403.092 231.466 402.615 228.841C401.475 222.541 398.717 217.052 393.873 212.752C386.041 205.802 376.611 204.732 366.729 205.56C364.479 205.748 363.994 206.517 363.959 208.83C363.904 212.111 363.85 215.392 363.846 218.673C363.83 229.08 363.83 239.486 363.846 249.892C363.85 252.853 363.881 255.814 363.967 258.767C364.061 261.791 365.158 264.349 368.119 265.521C372.787 267.369 377.697 267.588 382.596 266.834C390.42 265.634 395.893 261.076 399.564 254.244C402.471 248.822 403.291 242.904 403.533 236.818V236.818ZM422.553 272.252C422.459 270.631 423.123 269.291 423.943 268.06C424.166 267.728 424.932 267.744 425.459 267.638L429.936 266.752C431.518 266.416 432.35 265.353 432.572 263.802C432.721 262.779 432.861 261.744 432.873 260.709C432.971 252.517 433.064 244.326 433.104 236.134C433.143 227.931 433.111 219.728 433.111 211.525L433.076 209.959C432.916 207.322 431.643 205.955 429.025 205.568L423.35 204.705C422.65 204.611 422.396 204.275 422.65 203.654C423.088 202.595 423.506 201.498 424.123 200.545C424.354 200.193 425.131 200.056 425.654 200.068C428.365 200.107 431.076 200.31 433.787 200.306L457.385 200.166C461.932 200.162 466.322 200.955 470.4 203.131C474.889 205.521 477.4 209.22 478.119 214.259C478.869 219.552 477.264 224.013 473.396 227.556C471.807 229.017 469.748 229.97 467.904 231.158L467.303 231.533C469.014 232.162 470.643 232.705 472.228 233.353C476.869 235.256 480.561 238.228 482.514 242.974C484.057 246.72 484.057 250.627 483.143 254.509C481.721 260.588 477.717 264.631 472.51 267.689C467.623 270.56 462.334 272.232 456.701 272.513C451.506 272.775 446.287 272.677 441.08 272.736L438.064 272.752C433.049 272.638 428.029 272.509 423.01 272.377L422.553 272.252V272.252ZM444.182 248.466H444.232C444.232 251.037 444.197 253.607 444.244 256.177C444.275 257.841 444.217 259.552 444.576 261.154C445.115 263.548 446.209 265.709 448.896 266.396C452.525 267.33 456.232 267.517 459.904 266.881C464.502 266.08 468.17 263.775 470.182 259.396C471.674 256.142 471.896 252.693 471.385 249.17C470.705 244.529 468.24 241.162 464.143 238.955C461.455 237.506 458.588 236.619 455.533 236.502C452.111 236.373 448.686 236.365 445.264 236.259C444.303 236.232 444.17 236.72 444.174 237.509C444.193 241.158 444.182 244.81 444.182 248.466V248.466ZM451.467 230.986C453.338 230.892 455.455 230.865 457.561 230.654C461.592 230.252 464.432 228.224 465.912 224.369C466.666 222.412 466.635 220.396 466.654 218.361C466.713 213.06 463.619 208.716 458.584 206.92C454.697 205.533 450.689 205.509 446.658 205.619C445.025 205.662 444.295 206.377 444.271 208.021L444.029 229.463C444.018 230.314 444.385 230.681 445.213 230.709L451.467 230.986V230.986Z" fill="url(#paint0_linear_14_77)"/>
<path fill-rule="evenodd" clip-rule="evenodd" d="M41.0645 268.131L40.7794 271.818C38.1231 271.818 35.6739 271.799 33.2247 271.826C28.6114 271.873 23.9981 271.947 19.3809 272.014L18.9356 272.041C18.2755 271.963 17.0763 271.963 17.045 271.768C16.8497 270.67 16.9122 269.518 16.963 268.381C16.9669 268.252 17.4161 268.088 17.6778 268.025L21.2677 267.225C23.5059 266.643 24.295 265.678 24.4005 263.365C24.5216 260.76 24.6427 258.15 24.6544 255.545C24.6895 249.131 24.6505 242.725 24.6778 236.311C24.6817 234.811 24.1622 233.693 22.7638 233.084C21.0997 232.35 19.4278 231.631 17.7442 230.951C16.9473 230.631 15.9122 230.455 16.0059 229.385C16.0997 228.295 17.1036 228.01 18.0489 227.795C21.963 226.9 25.8809 226.029 29.7833 225.076C31.0411 224.768 32.2442 224.248 33.7481 223.725C33.8263 224.537 33.9708 225.311 33.9552 226.084L33.7247 229.76C33.7208 230.174 33.9356 230.729 34.2442 230.959C34.4317 231.104 35.0606 230.842 35.3731 230.6C38.7091 228.061 42.2403 225.869 46.2677 224.592C52.5059 222.611 57.8614 224.447 61.6114 229.826C62.9317 231.721 62.9356 231.721 64.7677 230.396C67.9122 228.111 71.2013 226.096 74.8809 224.768C82.9591 221.85 90.7208 225.553 93.5294 233.689C94.5528 236.643 94.9434 239.693 94.9356 242.811L94.8614 263.506C94.8575 265.213 95.4239 266.186 97.0489 266.717C98.8731 267.314 100.764 267.725 102.818 268.264L102.342 271.822C100.006 271.822 97.8575 271.807 95.7091 271.826C90.4591 271.873 85.2091 271.9 79.963 272.021C79.0489 272.045 78.8106 271.818 78.7638 270.963C78.6114 268.225 78.588 268.229 81.1661 267.611L82.0333 267.389C84.5528 266.701 85.3927 265.928 85.4122 263.373C85.4708 256.037 85.6231 248.682 85.252 241.361C84.8653 233.768 78.838 229.725 71.4786 231.67C69.0763 232.303 66.9005 233.412 64.877 234.85C64.1934 235.338 64.0645 235.9 64.1192 236.756C64.3263 239.99 64.4552 243.229 64.4825 246.467C64.5294 252.135 64.4591 257.803 64.4825 263.475C64.4903 265.771 65.2755 266.65 67.545 267.182L70.9161 267.959L71.5411 268.1C71.588 269.178 71.6309 270.256 71.5802 271.334C71.5489 272.01 71.0255 272.068 70.4395 272.057C67.1622 271.975 63.8809 271.865 60.6036 271.873C56.6153 271.881 52.6309 271.994 48.6466 272.064H47.7091C47.7091 270.92 47.6544 269.826 47.7481 268.736C47.7677 268.475 48.2286 268.107 48.545 268.025L52.4747 267.193C54.1427 266.783 54.9395 265.928 55.0333 264.232C55.4786 256.381 55.7989 248.525 55.0606 240.678C54.9161 239.154 54.42 237.607 53.7872 236.205C51.7755 231.76 47.2481 229.904 42.0255 231.24C39.545 231.873 37.3067 233.01 35.1895 234.443C34.1895 235.123 33.713 236.021 33.713 237.158C33.713 244.99 33.7403 252.822 33.7638 260.65L33.8067 263.67C33.8536 265.775 34.7481 266.885 36.838 267.338C38.1817 267.643 39.5411 267.85 41.0645 268.131V268.131Z" fill="url(#paint1_linear_14_77)"/>
<path fill-rule="evenodd" clip-rule="evenodd" d="M277.229 224.526C277.834 227.471 277.823 230.12 275.659 232.127C273.51 234.124 270.792 233.452 268.139 233.006C268.385 234.405 268.659 235.592 268.792 236.795C269.756 245.737 265.909 252.374 257.616 256.167C254.483 257.596 251.159 258.127 247.764 258.401C246.077 258.534 244.6 259.823 244.44 261.21C244.276 262.616 245.159 264.061 246.924 264.483C249.006 264.979 251.178 265.12 253.315 265.366C257.901 265.889 262.538 266.127 267.069 266.948C273.92 268.182 277.745 274.163 276.538 281.045C275.463 287.17 271.916 291.627 266.971 295.045C258.639 300.819 249.499 302.506 239.764 299.561C234.198 297.874 230.272 294.213 228.916 288.292C228.237 285.327 228.959 282.643 231.19 280.631C233.842 278.249 236.729 276.124 239.506 273.874L240.405 272.971L239.374 272.249C236.541 270.905 234.276 269.065 233.397 265.87C233.096 264.788 233.409 264.077 234.327 263.522C235.889 262.581 237.444 261.624 238.987 260.651C239.713 260.198 240.432 259.729 241.108 259.206C242.03 258.502 241.948 257.979 240.846 257.573C238.284 256.627 236.006 255.256 234.241 253.147C231.291 249.627 230.456 245.436 230.698 241.01C231.077 234.096 234.831 229.542 240.932 226.612C248.186 223.131 255.463 222.913 262.858 226.084C265.592 227.256 268.475 227.506 271.409 227.303C273.6 227.147 275.514 226.319 277.229 224.526V224.526ZM250.499 274.061C245.053 274.014 243.346 274.686 240.151 277.94C236.573 281.588 236.592 286.647 240.163 290.311C242.874 293.088 246.256 294.389 250.018 294.78C254.413 295.233 258.741 295.049 262.733 292.85C266.991 290.495 269.108 286.12 268.151 281.713C267.358 278.077 264.678 276.413 261.417 275.456C257.706 274.37 253.87 274.163 250.499 274.061V274.061ZM239.803 239.264C240.002 240.776 240.084 242.307 240.42 243.788C241.291 247.624 242.959 250.995 246.776 252.702C251.256 254.713 256.979 253.85 258.94 247.561C260.284 243.252 260.12 238.975 258.499 234.772C257.776 232.897 256.612 231.311 254.944 230.147C251.053 227.432 244.034 227.073 241.174 233.073C240.245 235.022 239.881 237.096 239.803 239.264V239.264Z" fill="url(#paint2_linear_14_77)"/>
<path fill-rule="evenodd" clip-rule="evenodd" d="M184.842 223.561C184.987 224.229 185.276 224.987 185.284 225.748C185.295 227.198 185.139 228.647 185.057 230.096V231.354L186.284 230.416C189.643 227.651 193.252 225.295 197.455 224.026C205.041 221.741 212.62 225.893 215.092 233.62C216.03 236.557 216.401 239.577 216.436 242.647C216.514 249.467 216.561 256.288 216.631 263.108C216.655 265.557 216.936 265.995 219.252 266.702C220.565 267.104 221.92 267.385 223.276 267.596C224.022 267.713 224.342 268.006 224.303 268.737L224.311 269.409C224.284 272.233 224.088 272.362 221.35 272.354C214.795 272.342 208.245 272.381 201.69 272.436C199.737 272.452 199.733 272.51 199.538 270.58L199.498 269.471C199.62 267.807 199.659 267.823 201.295 267.581C202.397 267.416 203.491 267.163 204.565 266.881C205.67 266.596 206.202 265.78 206.35 264.686C206.424 264.131 206.522 263.577 206.518 263.022C206.424 255.569 206.545 248.108 206.139 240.666C205.811 234.647 201.217 231.061 195.174 231.471C192.209 231.678 189.53 232.666 187.084 234.373C185.471 235.502 185.147 237.131 185.155 238.885C185.186 245.854 185.252 252.823 185.327 259.795C185.342 261.323 185.385 262.85 185.53 264.366C185.682 266.022 186.264 266.69 187.889 267.049C189.444 267.393 191.03 267.592 192.69 267.87L192.83 269.151C192.885 272.139 192.573 272.362 189.67 272.35C182.893 272.323 176.116 272.366 169.342 272.44C168.276 272.456 167.823 272.12 167.85 271.081L167.834 270.635C167.659 267.944 167.737 267.842 170.284 267.405L171.487 267.163C174.245 266.541 174.952 265.807 174.991 263.006C175.12 254.135 175.166 245.268 175.256 236.397C175.268 235.123 174.788 234.135 173.6 233.608C171.936 232.873 170.256 232.174 168.573 231.483C167.643 231.1 166.58 230.858 166.545 229.573C166.522 228.666 167.491 227.866 168.815 227.596C171.475 227.057 174.159 226.608 176.788 225.948C179.405 225.295 181.975 224.42 184.842 223.561Z" fill="url(#paint3_linear_14_77)"/>
<path fill-rule="evenodd" clip-rule="evenodd" d="M331.385 246.732C331.26 255.017 329.108 261.716 323.248 266.743C315.827 273.122 304.249 275.29 294.784 270.521C290.745 268.485 287.776 265.364 285.842 261.314C282.877 255.083 282.135 248.532 283.682 241.821C285.213 235.185 289.233 230.376 295.248 227.263C301.436 224.064 307.952 222.814 314.823 224.493C323.514 226.614 329.76 233.7 331.002 242.724C331.225 244.306 331.311 245.907 331.385 246.732V246.732ZM321.319 251.22L320.983 251.181C320.983 250.4 321.026 249.618 320.975 248.837C320.69 243.97 319.596 239.333 316.776 235.259C314.1 231.4 310.456 229.122 305.713 228.79C300.405 228.415 295.944 231.384 294.377 236.806C292.026 244.946 292.823 252.88 296.956 260.337C298.756 263.587 301.424 265.985 304.998 267.247C312.002 269.712 318.213 266.521 320.038 259.349C320.709 256.7 320.905 253.931 321.319 251.22Z" fill="url(#paint4_linear_14_77)"/>
<path fill-rule="evenodd" clip-rule="evenodd" d="M159.33 247.372C159.185 253.318 157.783 258.814 154.111 263.591C150.177 268.708 144.771 271.443 138.623 272.595C131.353 273.954 124.525 272.72 118.685 267.841C115.912 265.521 114.017 262.548 112.767 259.165C110.716 253.618 110.205 247.935 111.466 242.142C112.814 235.943 116.314 231.204 121.74 228.025C128.013 224.357 134.783 222.72 142.013 224.368C151.31 226.493 156.677 232.552 158.662 241.724C159.06 243.575 159.115 245.489 159.33 247.372V247.372ZM149.15 251.294L148.88 251.255V250.138C148.728 244.685 147.662 239.489 144.408 234.958C141.998 231.595 138.771 229.485 134.634 228.896C127.892 227.935 123.486 231.935 122.025 237.368C120.119 244.466 120.716 251.478 123.666 258.208C125.505 262.403 128.412 265.673 132.877 267.259C139.838 269.732 146.142 266.458 147.904 259.314C148.552 256.7 148.748 253.974 149.15 251.294V251.294Z" fill="url(#paint5_linear_14_77)"/>
<defs>
<linearGradient id="paint0_linear_14_77" x1="412.251" y1="200" x2="412.251" y2="272.767" gradientUnits="userSpaceOnUse">
<stop stop-color="#1A6DFF"/>
<stop offset="1" stop-color="#C822FF"/>
</linearGradient>
<linearGradient id="paint1_linear_14_77" x1="59.4092" y1="223.725" x2="59.4092" y2="272.064" gradientUnits="userSpaceOnUse">
<stop stop-color="#1A6DFF"/>
<stop offset="1" stop-color="#C822FF"/>
</linearGradient>
<linearGradient id="paint2_linear_14_77" x1="253.122" y1="223.846" x2="253.122" y2="300.984" gradientUnits="userSpaceOnUse">
<stop stop-color="#6DC7FF"/>
<stop offset="1" stop-color="#E6ABFF"/>
</linearGradient>
<linearGradient id="paint3_linear_14_77" x1="195.428" y1="223.4" x2="195.428" y2="272.44" gradientUnits="userSpaceOnUse">
<stop stop-color="#1A6DFF"/>
<stop offset="1" stop-color="#C822FF"/>
</linearGradient>
<linearGradient id="paint4_linear_14_77" x1="307.14" y1="223.746" x2="307.14" y2="273.104" gradientUnits="userSpaceOnUse">
<stop stop-color="#6DC7FF"/>
<stop offset="1" stop-color="#E6ABFF"/>
</linearGradient>
<linearGradient id="paint5_linear_14_77" x1="135.056" y1="223.727" x2="135.056" y2="273.112" gradientUnits="userSpaceOnUse">
<stop stop-color="#1A6DFF"/>
<stop offset="1" stop-color="#C822FF"/>
</linearGradient>
</defs>
</svg>
